<svg width="65" height="64" viewBox="0 0 65 64" fill="none" xmlns="http://www.w3.org/2000/svg">
<g clip-path="url(#clip0_49_624)">
<path d="M32.5 0C26.171 0 19.9841 1.87677 14.7218 5.39297C9.45939 8.90918 5.35787 13.9069 2.93587 19.7541C0.513865 25.6014 -0.119842 32.0355 1.11489 38.2429C2.34961 44.4503 5.39732 50.1521 9.8726 54.6274C14.3479 59.1027 20.0497 62.1504 26.2571 63.3851C32.4645 64.6199 38.8987 63.9862 44.7459 61.5642C50.5931 59.1421 55.5908 55.0406 59.107 49.7783C62.6232 44.5159 64.5 38.329 64.5 32C64.4904 23.516 61.1159 15.3823 55.1168 9.38319C49.1177 3.3841 40.984 0.00959887 32.5 0ZM44.3855 27.2188L31.0522 40.5521C30.8046 40.7998 30.5106 40.9963 30.1871 41.1303C29.8636 41.2643 29.5169 41.3333 29.1667 41.3333C28.8165 41.3333 28.4698 41.2643 28.1462 41.1303C27.8227 40.9963 27.5288 40.7998 27.2812 40.5521L20.6145 33.8855C20.3618 33.639 20.1604 33.3448 20.0223 33.02C19.8841 32.6951 19.8117 32.346 19.8095 31.993C19.8073 31.64 19.8752 31.29 20.0092 30.9634C20.1433 30.6368 20.3409 30.3401 20.5905 30.0905C20.8401 29.8409 21.1369 29.6433 21.4634 29.5092C21.79 29.3751 22.14 29.3073 22.493 29.3095C22.846 29.3117 23.1951 29.384 23.52 29.5222C23.8448 29.6604 24.139 29.8618 24.3855 30.1145L29.1667 34.8952L40.6145 23.4479C40.861 23.1951 41.1552 22.9938 41.4801 22.8556C41.8049 22.7174 42.154 22.6451 42.507 22.6428C42.86 22.6406 43.21 22.7085 43.5366 22.8425C43.8632 22.9766 44.1599 23.1742 44.4095 23.4238C44.6592 23.6735 44.8567 23.9702 44.9908 24.2968C45.1249 24.6234 45.1928 24.9733 45.1905 25.3263C45.1883 25.6794 45.116 26.0284 44.9778 26.3533C44.8396 26.6782 44.6383 26.9724 44.3855 27.2188Z" fill="#23C85B"/>
</g>
<defs>
<clipPath id="clip0_49_624">
<rect width="64" height="64" fill="white" transform="translate(0.5)"/>
</clipPath>
</defs>
</svg>
